<?xml version="1.0" encoding="UTF-8"?>
<svg width="50px" height="71px" viewBox="0 0 50 71" version="1.1" xmlns="http://www.w3.org/2000/svg" xmlns:xlink="http://www.w3.org/1999/xlink">
    <defs>
        <linearGradient x1="0%" y1="100%" x2="84.9922928%" y2="0%" id="linearGradient-1">
            <stop stop-color="#EEEEEE" offset="0%"></stop>
            <stop stop-color="#FFFFFF" offset="100%"></stop>
        </linearGradient>
        <path d="M2.1,50.1176471 L47.5529264,50.1176471 L47.5529264,50.1176471 C48.7127243,50.1176471 49.6529264,49.177445 49.6529264,48.0176471 C49.6529264,47.4415892 49.4162868,46.8908238 48.9984145,46.4943073 L0,0 L0,48.0176471 L0,48.0176471 C4.26246442e-15,49.177445 0.940202025,50.1176471 2.1,50.1176471 Z" id="path-2"></path>
    </defs>
    <g id="Page-1" stroke="none" stroke-width="1" fill="none" fill-rule="evenodd">
        <g id="Desktop-HD" transform="translate(-120.000000, -39.000000)">
            <g id="K-logo" transform="translate(120.000000, 39.000000)">
                <g id="Path-2-Copy" transform="translate(0.000000, 20.882353)">
                    <mask id="mask-3" fill="white">
                        <use xlink:href="#path-2"></use>
                    </mask>
                    <use id="Mask" fill="url(#linearGradient-1)" xlink:href="#path-2"></use>
                    <polygon id="Path-2" fill-opacity="0.200000003" fill="#000000" mask="url(#mask-3)" points="15.6458073 14 19.6307983 17.7540165 -0.395611702 29.7229535"></polygon>
                </g>
                <path d="M2.1,4.10455903e-15 L47.5529264,4.10455903e-15 L47.5529264,1.687539e-14 C48.7127243,1.66623442e-14 49.6529264,0.940202025 49.6529264,2.1 C49.6529264,2.67605783 49.4162868,3.22682321 48.9984145,3.62333976 L0,50.1176471 L0,2.1 L0,2.1 C-1.42034288e-16,0.940202025 0.940202025,8.65074071e-15 2.1,8.43769499e-15 Z" id="Rectangle-Copy-2" fill="url(#linearGradient-1)"></path>
            </g>
        </g>
    </g>
</svg>